<svg width="234" height="30" viewBox="0 0 234 30" fill="none" xmlns="http://www.w3.org/2000/svg">
<path d="M117.921 27.6C117.921 27.947 117.094 28.227 115.441 28.44C113.814 28.653 112.188 28.76 110.561 28.76C108.934 28.76 107.894 28.667 107.441 28.48C106.988 28.293 106.761 28 106.761 27.6V3.08005C106.761 2.38705 107.508 1.77304 109.001 1.24004C110.521 0.707036 112.268 0.440048 114.241 0.440048C115.868 0.440048 116.921 0.76004 117.401 1.40004C117.748 1.85304 117.921 2.26705 117.921 2.64005V9.24004H118.241C118.241 9.10704 118.641 8.00004 119.441 5.92004C120.961 2.00004 122.068 0.0400391 122.761 0.0400391C124.068 0.0400391 125.908 0.427043 128.281 1.20004C129.428 1.57304 130.414 2.12004 131.241 2.84004C132.068 3.53304 132.481 4.30705 132.481 5.16005C132.481 5.69305 131.934 6.73304 130.841 8.28004C129.774 9.80004 128.148 11.84 125.961 14.4C126.468 14.933 127.108 15.613 127.881 16.44C128.654 17.267 129.681 18.507 130.961 20.16C132.268 21.787 132.921 22.947 132.921 23.64C132.921 24.333 132.294 25.147 131.041 26.08C129.788 26.987 128.454 27.733 127.041 28.32C125.628 28.88 124.574 29.16 123.881 29.16C123.428 29.16 122.801 28.48 122.001 27.12C121.228 25.733 120.281 23.667 119.161 20.92L117.921 22.4V27.6ZM146.68 27.68C146.68 28.027 145.854 28.307 144.2 28.52C142.574 28.733 140.947 28.84 139.32 28.84C137.694 28.84 136.654 28.747 136.2 28.56C135.747 28.373 135.52 28.08 135.52 27.68V3.12004C135.52 2.45304 136.28 1.84004 137.8 1.28004C139.347 0.720045 141.094 0.440048 143.04 0.440048C143.734 0.440048 144.254 0.467035 144.6 0.520035C145.507 0.653035 146.147 1.22704 146.52 2.24004L150.36 12.56H150.52V3.12004C150.52 2.45304 151.28 1.84004 152.8 1.28004C154.32 0.720045 156.054 0.440048 158 0.440048C159.68 0.440048 160.747 0.76004 161.2 1.40004C161.52 1.85304 161.68 2.26705 161.68 2.64005V27.68C161.68 28.027 160.854 28.307 159.2 28.52C157.574 28.733 155.774 28.84 153.8 28.84C151.854 28.84 150.787 28.587 150.6 28.08L146.88 18.24H146.68V27.68ZM178.815 29.2C176.602 29.2 174.695 29 173.095 28.6C171.522 28.173 170.069 27.427 168.735 26.36C166.042 24.253 164.695 20.213 164.695 14.24C164.695 11.733 165.055 9.54704 165.775 7.68004C166.522 5.81304 167.549 4.33304 168.855 3.24004C171.415 1.10704 174.735 0.0400391 178.815 0.0400391C180.922 0.0400391 182.749 0.227037 184.295 0.600037C185.869 0.973037 187.349 1.65305 188.735 2.64005C191.535 4.66705 192.935 8.53304 192.935 14.24C192.935 19.36 191.669 23.133 189.135 25.56C186.602 27.987 183.162 29.2 178.815 29.2ZM177.495 22.36C177.815 22.733 178.255 22.92 178.815 22.92C179.375 22.92 179.815 22.733 180.135 22.36C180.455 21.96 180.722 21.133 180.935 19.88C181.149 18.6 181.255 16.827 181.255 14.56C181.255 12.293 181.149 10.547 180.935 9.32004C180.722 8.09304 180.455 7.29304 180.135 6.92004C179.815 6.54704 179.375 6.36005 178.815 6.36005C178.255 6.36005 177.815 6.54704 177.495 6.92004C177.175 7.29304 176.909 8.09304 176.695 9.32004C176.482 10.547 176.375 12.293 176.375 14.56C176.375 16.827 176.482 18.6 176.695 19.88C176.909 21.133 177.175 21.96 177.495 22.36ZM205.719 28.84C204.439 28.84 203.599 28.747 203.199 28.56C202.799 28.373 202.519 28.053 202.359 27.6L193.519 3.20004C193.519 2.69304 194.465 2.10705 196.359 1.44005C198.279 0.773048 200.212 0.440048 202.159 0.440048C204.665 0.440048 205.999 1.22705 206.159 2.80005L207.519 15.48H208.079L209.199 2.80005C209.332 1.22705 211.132 0.440048 214.599 0.440048C215.932 0.440048 216.825 0.627046 217.279 1.00005C217.732 1.34705 217.985 1.81304 218.039 2.40004L219.359 15.48H219.919L220.959 2.80005C221.039 2.02705 221.945 1.44004 223.679 1.04004C225.439 0.640039 227.172 0.440048 228.879 0.440048C230.612 0.440048 231.785 0.693043 232.399 1.20004C233.039 1.70704 233.359 2.24005 233.359 2.80005L224.799 27.6C224.505 28.427 222.532 28.84 218.879 28.84C217.785 28.84 217.052 28.747 216.679 28.56C216.305 28.373 216.052 28.053 215.919 27.6L213.839 20.64H213.359L211.239 27.6C210.999 28.427 209.159 28.84 205.719 28.84Z" fill="#FC9C0D"/>
<path d="M6.56 28.88C7.33333 29.067 8.17333 29.16 9.08 29.16C10.6267 29.16 11.7733 28.747 12.52 27.92C13.2933 27.093 13.7733 26.107 13.96 24.96H14.28L14.56 27.32C14.6133 27.987 14.84 28.4 15.24 28.56C15.64 28.693 16.5867 28.76 18.08 28.76C19.6 28.76 21.0533 28.653 22.44 28.44C23.8533 28.227 24.56 27.947 24.56 27.6V16.52C24.56 16.147 24.3733 15.72 24 15.24C23.7867 14.947 23.3867 14.72 22.8 14.56C22.24 14.4 21.3333 14.32 20.08 14.32C18.8267 14.32 17.52 14.6 16.16 15.16C14.8 15.72 14.12 16.333 14.12 17V20.6C13.32 20.493 12.6533 19.973 12.12 19.04C11.5867 18.08 11.32 16.627 11.32 14.68C11.32 10.813 12.4667 8.88004 14.76 8.88004C15.56 8.88004 16.76 9.09303 18.36 9.52003C19.96 9.92003 20.8667 10.12 21.08 10.12C21.96 10.12 22.6267 9.41305 23.08 8.00005C23.5333 6.56005 23.76 5.22705 23.76 4.00005C23.76 2.45305 23.1067 1.41304 21.8 0.880035C20.4933 0.320035 18.24 0.0400391 15.04 0.0400391C13.6533 0.0400391 12.3467 0.147046 11.12 0.360046C9.8933 0.547046 8.57333 0.973045 7.16 1.64005C5.74667 2.30705 4.53333 3.17304 3.52 4.24004C2.50667 5.28004 1.66667 6.74705 1 8.64005C0.33333 10.533 0 12.72 0 15.2C0 19.707 0.66667 23.08 2 25.32C2.58667 26.307 3.29333 27.107 4.12 27.72C4.97333 28.307 5.78667 28.693 6.56 28.88Z" fill="#FC9C0D"/>
<path d="M31.0731 28.84H48.0331C48.4331 28.84 48.7531 28.36 48.9931 27.4C49.2331 26.44 49.3531 25.0271 49.3531 23.16C49.3531 21.293 49.0731 20.36 48.5131 20.36C46.7531 20.36 43.5531 20.533 38.9131 20.88V18.32L46.1531 18.48C46.6331 18.48 47.0065 18.053 47.2731 17.2C47.5665 16.32 47.7131 15.04 47.7131 13.36C47.7131 11.68 47.3531 10.84 46.6331 10.84C45.4331 10.84 42.8598 10.92 38.9131 11.08V8.40004C43.0198 8.74704 45.9398 8.92004 47.6731 8.92004C48.0731 8.92004 48.3931 8.44004 48.6331 7.48004C48.8731 6.49304 48.9931 5.08004 48.9931 3.24004C48.9931 1.37304 48.7131 0.440048 48.1531 0.440048H32.0731C30.4465 0.440048 29.3131 0.587035 28.6731 0.880035C28.0598 1.17304 27.7531 1.66705 27.7531 2.36005V27.68C27.7531 28.08 27.9798 28.373 28.4331 28.56C28.8865 28.747 29.7665 28.84 31.0731 28.84Z" fill="#FC9C0D"/>
<path d="M67.0872 28.6C68.7405 28.413 69.5672 28.173 69.5672 27.88V10.68H74.5672C75.0739 10.68 75.4739 10.053 75.7672 8.80005C76.0605 7.54705 76.2072 6.21305 76.2072 4.80005C76.2072 3.38705 76.1272 2.30704 75.9672 1.56004C75.8339 0.813043 75.5672 0.440048 75.1672 0.440048H53.5272C52.9939 0.440048 52.5672 1.04004 52.2472 2.24004C51.9272 3.41304 51.7672 4.74704 51.7672 6.24004C51.7672 7.70704 51.8739 8.81304 52.0872 9.56004C52.3005 10.307 52.5539 10.68 52.8472 10.68H58.4072V27.88C58.4072 28.227 58.6205 28.48 59.0472 28.64C59.5005 28.773 60.5405 28.84 62.1672 28.84C63.8205 28.84 65.4605 28.76 67.0872 28.6Z" fill="#FC9C0D"/>
<path d="M82.7662 10.8C82.0196 10.8 81.3662 9.92 80.8062 8.16C80.2729 6.4 80.0062 4.707 80.0062 3.08C80.0062 2.707 80.4196 2.293 81.2462 1.84C82.0729 1.36 83.3262 0.932998 85.0062 0.559998C86.6862 0.186998 88.5129 0 90.4862 0C98.14 0 101.966 2.67999 101.966 8.03999C101.966 9.53299 101.646 10.933 101.006 12.24C100.366 13.547 99.66 14.6 98.886 15.4C98.113 16.173 97.206 16.893 96.166 17.56C94.966 18.307 93.82 18.893 92.726 19.32H100.726C100.886 19.32 101.06 19.4 101.246 19.56C101.433 19.693 101.633 20.12 101.846 20.84C102.06 21.533 102.166 22.413 102.166 23.48C102.166 24.52 102.1 25.4 101.966 26.12C101.833 26.813 101.673 27.32 101.486 27.64C101.086 28.36 100.726 28.747 100.406 28.8L100.206 28.84H82.6862C81.0062 28.84 80.1662 26.213 80.1662 20.96C80.1662 20.373 81.8996 18.76 85.3662 16.12C86.6729 15.16 87.8729 14.107 88.9662 12.96C90.0596 11.813 90.6062 10.88 90.6062 10.16C90.6062 9.36 90.0062 8.95999 88.8062 8.95999C87.6062 8.95999 86.3396 9.26699 85.0062 9.87999C83.6996 10.493 82.9529 10.8 82.7662 10.8Z" fill="#219FD9"/>
</svg>
